<svg width="32" height="32" viewBox="0 0 32 32" xmlns="http://www.w3.org/2000/svg">
<path fill-rule="evenodd" clip-rule="evenodd" d="M2.75 16C2.75 8.68223 8.68223 2.75 16 2.75C23.3178 2.75 29.25 8.68223 29.25 16C29.25 19.9643 27.509 23.522 24.7499 25.9502L24.75 26H24.693C22.3662 28.0243 19.3263 29.25 16 29.25C12.6737 29.25 9.63375 28.0243 7.30703 26H7.25L7.25014 25.9502C4.49101 23.522 2.75 19.9643 2.75 16ZM27.75 16C27.75 19.1267 26.5287 21.9682 24.5372 24.0734C23.6596 20.1678 20.1705 17.25 16 17.25C11.8295 17.25 8.3404 20.1678 7.4628 24.0734C5.47127 21.9682 4.25 19.1267 4.25 16C4.25 9.51065 9.51065 4.25 16 4.25C22.4893 4.25 27.75 9.51065 27.75 16ZM16 27.75C13.2806 27.75 10.7769 26.8262 8.78578 25.2752C9.14942 21.6115 12.2405 18.75 16 18.75C19.7595 18.75 22.8506 21.6115 23.2142 25.2752C21.2231 26.8262 18.7194 27.75 16 27.75ZM19 11.5C19 13.1569 17.6569 14.5 16 14.5C14.3431 14.5 13 13.1569 13 11.5C13 9.84315 14.3431 8.5 16 8.5C17.6569 8.5 19 9.84315 19 11.5ZM20.5 11.5C20.5 13.9853 18.4853 16 16 16C13.5147 16 11.5 13.9853 11.5 11.5C11.5 9.01472 13.5147 7 16 7C18.4853 7 20.5 9.01472 20.5 11.5Z"/>
</svg>
