<svg width="32" height="32" viewBox="0 0 32 32" xmlns="http://www.w3.org/2000/svg">
<path fill-rule="evenodd" clip-rule="evenodd" d="M21.9129 20.8032H10V19.3032H21.9129V20.8032Z" />
<path fill-rule="evenodd" clip-rule="evenodd" d="M21.9129 23.9565H10V22.4565H21.9129V23.9565Z" />
<path fill-rule="evenodd" clip-rule="evenodd" d="M24 4.5H8C7.72386 4.5 7.5 4.72386 7.5 5V27C7.5 27.2761 7.72386 27.5 8 27.5H24C24.2761 27.5 24.5 27.2761 24.5 27V5C24.5 4.72386 24.2761 4.5 24 4.5ZM8 3C6.89543 3 6 3.89543 6 5V27C6 28.1046 6.89543 29 8 29H24C25.1046 29 26 28.1046 26 27V5C26 3.89543 25.1046 3 24 3H8Z" />
<path fill-rule="evenodd" clip-rule="evenodd" d="M21.031 9.95119L14.0944 15.8872L11 12.6351L12.0867 11.6011L14.2003 13.8223L20.0557 8.81152L21.031 9.95119Z"/>
</svg>
